<svg width="36" height="22" viewBox="0 0 36 22" fill="none" xmlns="http://www.w3.org/2000/svg">
<path d="M35.2639 6.42382C35.0021 5.87467 34.4583 5.52891 33.834 5.52891H26.0397H17.5405H4.16731L7.57102 1.6442L6.04036 0.281494L0.582336 6.52552L6.04036 12.7695L7.55088 11.4272L4.16731 7.54246H11.4984L17.9634 15.4949L14.741 19.461L9.86702 14.1119L8.37664 15.4746L13.5728 21.2102C13.8749 21.5356 14.2979 21.7186 14.741 21.7186C14.7611 21.7186 14.7611 21.7186 14.7813 21.7186C15.2445 21.6983 15.6674 21.4949 15.9695 21.1288L19.2524 17.0814L22.5151 21.0881C22.8172 21.4542 23.2603 21.6779 23.7437 21.6779C23.7437 21.6779 23.7437 21.6779 23.7638 21.6779C24.2472 21.6779 24.6903 21.4542 24.9924 21.0678L35.0827 8.09161C35.4452 7.62381 35.5258 6.97297 35.2639 6.42382ZM14.0965 7.54246H17.5203H24.4083L19.2524 13.8882L14.0965 7.54246ZM23.7437 19.4L20.5615 15.4949L27.0266 7.54246H32.9478L23.7437 19.4Z" fill="#FEFEFE"/>
</svg>
